<?xml version="1.0" standalone="no"?>
<!DOCTYPE svg PUBLIC "-//W3C//DTD SVG 20010904//EN"
 "http://www.w3.org/TR/2001/REC-SVG-20010904/DTD/svg10.dtd">
<svg version="1.0" xmlns="http://www.w3.org/2000/svg"
 width="600.000000pt" height="600.000000pt" viewBox="0 0 600.000000 600.000000"
 preserveAspectRatio="xMidYMid meet">
<metadata>
Created by potrace 1.11, written by Peter Selinger 2001-2013
</metadata>
<g transform="translate(0.000000,600.000000) scale(0.100000,-0.100000)"
fill="#000000" stroke="none">
<path d="M0 3000 l0 -3000 3000 0 3000 0 0 3000 0 3000 -3000 0 -3000 0 0
-3000z m3595 2521 c380 -57 710 -183 1015 -386 112 -74 313 -236 364 -294 l20
-22 -124 -124 -123 -124 -66 61 c-333 306 -759 497 -1223 547 -140 16 -368 13
-505 -4 -764 -100 -1409 -607 -1687 -1327 -97 -250 -140 -490 -140 -778 0
-353 69 -643 226 -952 113 -222 234 -384 425 -568 282 -272 624 -453 1008
-533 489 -103 986 -39 1422 184 129 66 326 199 436 295 l89 77 90 -89 c49 -49
104 -107 121 -128 l31 -39 -54 -50 c-452 -409 -984 -629 -1580 -653 -684 -28
-1338 218 -1823 686 -213 205 -363 412 -497 685 -168 341 -237 621 -247 1001
-10 384 37 676 162 999 323 837 1102 1443 1985 1544 52 6 111 13 130 15 84 10
421 -4 545 -23z"/>
</g>
</svg>
